<svg xmlns="http://www.w3.org/2000/svg" width="369" height="53"><path d="M95.1 11.2h8.1L93 44.4h-9l-5.7-22.3-5.8 22.3h-9L53.3 11.2h8.5L68 36.4l6.1-25.3H83l6 25.2 6.1-25.1zm13.1 28.9c-3.2-3.2-4.9-7.3-4.9-12.4 0-5.1 1.6-9.2 4.9-12.4 3.3-3.1 7.4-4.7 12.2-4.7s8.9 1.6 12.2 4.7c3.3 3.1 4.9 7.2 4.9 12.4 0 5.1-1.6 9.3-5 12.4-3.3 3.2-7.4 4.7-12.3 4.7-4.7.1-8.7-1.5-12-4.7zm12.2-2.4c2.4 0 4.4-.9 6.1-2.6 1.7-1.7 2.5-4.2 2.5-7.4s-.8-5.6-2.5-7.3c-1.7-1.7-3.7-2.6-6.1-2.6-2.4 0-4.4.9-6 2.6-1.6 1.7-2.5 4.2-2.5 7.4s.8 5.7 2.5 7.4c1.6 1.7 3.6 2.5 6 2.5zm23.1 2.4c-3.2-3.2-4.9-7.3-4.9-12.4 0-5.1 1.6-9.2 4.9-12.4 3.3-3.1 7.4-4.7 12.2-4.7s8.9 1.6 12.2 4.7c3.3 3.1 4.9 7.2 4.9 12.4 0 5.1-1.6 9.3-5 12.4-3.3 3.2-7.4 4.7-12.3 4.7-4.7.1-8.8-1.5-12-4.7zm12.2-2.4c2.4 0 4.4-.9 6.1-2.6 1.7-1.7 2.5-4.2 2.5-7.4s-.8-5.6-2.5-7.3c-1.7-1.7-3.7-2.6-6.1-2.6-2.4 0-4.4.9-6 2.6-1.6 1.7-2.5 4.2-2.5 7.4s.8 5.7 2.5 7.4c1.6 1.7 3.6 2.5 6 2.5zm23.7 2.4c-3-3.2-4.5-7.3-4.5-12.3 0-5 1.5-9.1 4.4-12.3 3-3.2 6.7-4.8 11.3-4.8 4.6 0 8 1.9 10.4 5.6V0h8.4v44.4H201v-5.6c-2.5 4-6 6.1-10.5 6.1s-8.2-1.6-11.1-4.8zm19-5.2c1.8-1.7 2.6-4.1 2.6-7.2 0-3-.9-5.4-2.6-7.2-1.8-1.7-3.8-2.6-6.2-2.6-2.4 0-4.4.9-6.2 2.6-1.7 1.7-2.6 4.1-2.6 7.1s.9 5.4 2.6 7.2c1.8 1.8 3.8 2.6 6.1 2.6 2.5.2 4.5-.7 6.3-2.5zm24.1-23.7v5c2.1-3.6 5.6-5.5 10.3-5.5 2.5 0 4.8.6 6.8 1.7 2 1.2 3.5 2.8 4.6 5 1.2-2.1 2.8-3.7 4.8-4.9 2-1.2 4.3-1.8 6.8-1.8 4 0 7.2 1.2 9.6 3.7 2.4 2.5 3.6 6 3.6 10.4v19.6h-8.4V26c0-2.6-.7-4.6-2-6s-3.1-2.1-5.4-2.1c-2.3 0-4.1.7-5.4 2.1s-2 3.4-2 6v18.4h-8.4V26c0-2.6-.7-4.6-2-6-1.3-1.4-3.1-2.1-5.4-2.1-2.3 0-4.1.7-5.4 2.1s-2 3.4-2 6v18.4H214V11.2h8.5zm54.9 28.9c-3-3.2-4.5-7.3-4.5-12.3 0-5 1.5-9.1 4.4-12.3 3-3.2 6.7-4.8 11.3-4.8 4.6 0 8 1.9 10.4 5.6v-5.2h8.4v33.2H299v-5.6c-2.5 4-6 6.1-10.5 6.1-4.4.1-8.1-1.5-11.1-4.7zm19-5.2c1.8-1.7 2.6-4.1 2.6-7.2 0-3-.9-5.4-2.6-7.2-1.8-1.7-3.8-2.6-6.2-2.6-2.4 0-4.4.9-6.2 2.6-1.7 1.7-2.6 4.1-2.6 7.1s.9 5.4 2.6 7.2c1.8 1.8 3.8 2.6 6.2 2.6s4.5-.7 6.2-2.5zm25.1-23.7V17c2.2-4.2 5.5-6.4 9.7-6.4v8.6h-2.1c-2.5 0-4.4.6-5.7 1.9-1.3 1.3-1.9 3.4-1.9 6.5v16.7H313V11.2h8.5zm29.2 26.1h4v7.1h-5.3c-3.4 0-6-.8-7.9-2.3-1.8-1.6-2.8-4.1-2.8-7.7V18.1h-3.5v-6.9h3.5V2.9h8.5v8.2h7.4V18h-7.4v16.3c0 1.1.3 1.9.8 2.3.6.5 1.5.7 2.7.7z"/><circle fill="none" stroke="#000" stroke-width="3" stroke-miterlimit="10" cx="24.2" cy="28.5" r="22.7"/><path d="M10 39.8l13.9-28.7L39 39.8"/><path d="M22.5 39.6h2.9v6.3h-2.9zm345.7 0c0 1.4-.5 2.5-1.4 3.4-.9.9-2.1 1.4-3.4 1.4s-2.5-.5-3.4-1.4c-.9-.9-1.4-2.1-1.4-3.4 0-1.4.5-2.5 1.4-3.4.9-.9 2-1.4 3.4-1.4s2.5.5 3.4 1.4c.9.9 1.4 2.1 1.4 3.4z"/></svg>