<svg xmlns="http://www.w3.org/2000/svg" viewBox="0 0 512.006 512.006" width="512" height="512"><g fill="#333" transform="translate(1 1)"><circle cx="255.003" cy="169.668" r="8.533"/><circle cx="255.003" cy="203.801" r="8.533"/><path d="M509.182 207.062L416.687 89.341c-3.135-14.587-26.224-30.186-80.363-46.687l-23.106-23.106-2.078-4.151A29.657 29.657 0 00284.609-.997h-59.196a29.665 29.665 0 00-26.546 16.424l-2.063 4.132-23.096 23.096c-55.363 16.873-78.255 32.804-80.64 47.005L.824 207.062c-3.006 3.826-2.21 9.388 1.75 12.216l59.733 42.667a8.531 8.531 0 008.919.615L118.5 237.8l-.004 264.668a8.533 8.533 0 008.533 8.533h34.057l.051.003h51.2l.051-.003h170.616a8.533 8.533 0 008.533-8.533V237.815l47.243 24.745a8.535 8.535 0 008.919-.615l59.733-42.667c3.96-2.828 4.757-8.39 1.75-12.216zM201.206 39.297l26.599 57.631-19.336 9.67-20.321-54.243 13.058-13.058zm107.632.014l13.043 13.043-20.321 54.243-19.318-9.662 26.596-57.624zm-83.426-23.242h59.196c4.773 0 9.137 2.697 11.267 6.961l.86 1.717-33.475 72.535c-.039.085-.068.172-.104.258l-8.131 17.622-41.733-90.422.846-1.694a12.596 12.596 0 0111.274-6.977zM118.493 218.537l-50.536 26.47-48.194-34.424 83.48-106.247c4.321 4.616 7.991 12.989 10.712 24.276 1.722 7.144 2.95 14.876 3.757 22.619.283 2.718.492 5.238.639 7.491.078 1.205.123 2.08.143 2.575v57.24zm85.31 275.397H169.67V476.87h34.133v17.064zm17.067 0v-25.597a8.533 8.533 0 00-8.533-8.533h-51.2a8.533 8.533 0 00-8.533 8.533v25.597h-17.041v-332.8c-.027-.921-.081-2.016-.178-3.519a210.536 210.536 0 00-.692-8.157c-.876-8.445-2.215-16.902-4.13-24.867-3.871-16.101-9.48-28.307-17.93-35.133.928-.943 2.09-1.982 3.517-3.108 9.954-7.859 28.327-16.548 56.911-25.619l22.753 60.734c1.778 4.746 7.275 6.905 11.808 4.638l27.339-13.673 12.315 26.681c1.907 4.133 6.294 5.681 10.06 4.646 2.26-.619 4.297-2.168 5.442-4.648l12.31-26.671 27.321 13.664c4.533 2.267 10.03.107 11.808-4.638l22.753-60.735c28.586 9.072 46.96 17.761 56.913 25.62 1.422 1.122 2.58 2.157 3.506 3.097-3.997 3.204-7.39 7.708-10.271 13.333-.184.357-.369.712-.548 1.078-.191.391-.379.791-.565 1.193a72.212 72.212 0 00-.764 1.698c-.131.301-.262.601-.391.907a81.931 81.931 0 00-1.07 2.676l-.05.128a96.013 96.013 0 00-1.141 3.2c-.039.115-.076.234-.115.35a112.124 112.124 0 00-1.156 3.683c-.239.809-.473 1.631-.701 2.464-.096.35-.194.697-.288 1.051a150.3 150.3 0 00-.65 2.551c-.071.287-.147.563-.217.852-1.918 7.959-3.261 16.41-4.14 24.85a212.533 212.533 0 00-.695 8.152 117.252 117.252 0 00-.174 3.216l-.005 62.871c0 .134.021.263.027.396l-.004 269.838H220.87zm221.18-248.927l-50.513-26.458v-57.415c.011-.158.056-1.088.142-2.419.146-2.255.354-4.778.636-7.498.803-7.749 2.029-15.487 3.748-22.638a116.13 116.13 0 011.327-5.006c.087-.301.173-.605.262-.901.147-.492.298-.968.448-1.445.218-.688.44-1.362.666-2.02.064-.186.127-.374.192-.558a77.33 77.33 0 01.558-1.537l.065-.173c2.124-5.614 4.54-9.927 7.111-12.698l83.552 106.339-48.194 34.427z"/><path d="M348.87 178.201h-51.2a8.533 8.533 0 00-8.533 8.533v51.2a8.532 8.532 0 003.8 7.1l25.6 17.067a8.533 8.533 0 009.467 0l25.6-17.067a8.534 8.534 0 003.8-7.1v-51.2a8.534 8.534 0 00-8.534-8.533zm-8.533 55.166l-17.067 11.378-17.067-11.378v-38.1h34.133v38.1z"/></g></svg>