<svg xmlns="http://www.w3.org/2000/svg" viewBox="0 0 58.726 58.726" width="512" height="512"><g fill="#333"><path d="M58.644 46.093c.175-1.121.08-3.841-.367-5.076-.961-2.656-3.57-4.425-6.511-4.425l-.101.001c-.477.006-1.027.107-1.683.311a21.062 21.062 0 01-3.364.741V7.362a1 1 0 00-.804-.98l-30-6c-.041-.008-.081.006-.122.003-.052-.005-.103-.025-.157-.02l-12 1a1 1 0 00-.917.997v50.764L0 58.362h49.236l-2.618-5.236v-1.764h1.343l1.832 3.907a4.474 4.474 0 004.233 3.093c2.451 0 4.445-1.994 4.443-4.514l-.285-4.149c-.087-1.264-.039-1.436.09-1.895.096-.342.228-.81.37-1.711zM37.55 36.91a8.045 8.045 0 00-2.203-.317l-.104-.001c-2.945 0-5.556 1.771-6.517 4.431-.446 1.237-.54 3.954-.364 5.069.142.901.272 1.37.368 1.712.129.459.177.63.09 1.894l-.183 2.664h-12.02V21.504l28 3.733v12.58a21.533 21.533 0 01-7.067-.907zM4.618 22.281l4-.333v30.414h-4V22.281zm6-.5l4-.333v30.914h-4V21.781zm34 1.438l-28-3.733V2.581l28 5.6v15.038zm-30-3.777l-4 .333V2.782l4-.333v16.993zm-6-16.494v16.994l-4 .333V3.281l4-.333zM3.236 56.362l1-2H15l1 2H3.236zm15 0l-1-2h11.319c.012.125.037.245.06.366.007.039.011.079.019.117.054.251.132.493.226.726.02.05.042.099.064.148.099.223.21.44.344.641H18.236v.002zm18.458 0c.059-.089.106-.187.158-.282.035-.064.074-.124.107-.19.098-.198.185-.404.254-.62l.429-.908H45l1 2h-9.306zm7.924-4h-6.029l.478-1h5.552v1h-.001zm12.049-6.579c-.123.783-.231 1.17-.318 1.48-.188.668-.266 1.028-.16 2.571l.283 4.081a2.447 2.447 0 01-2.445 2.445 2.46 2.46 0 01-2.341-1.742l-2.453-5.258H38.558c-.661-.14-.766.01-2.183 3l-.151.32-.12.252-.001.002-.506 1.071-.223.473-.054.14a2.43 2.43 0 01-2.342 1.742 2.448 2.448 0 01-2.445-2.41l.283-4.117c.105-1.542.027-1.902-.16-2.57-.087-.311-.195-.696-.317-1.481-.132-.832-.046-3.209.269-4.081.675-1.867 2.531-3.109 4.637-3.109l.076.001a6.073 6.073 0 011.656.233c.58.173 1.159.324 1.738.454l.013.002c1.689.377 3.371.569 5.019.569.471 0 .975-.024 1.508-.061a22.858 22.858 0 005.32-.977c.576-.179.924-.219 1.116-.221l.073-.001c2.102 0 3.957 1.241 4.632 3.105v.001c.315.872.402 3.251.271 4.086z"/><path d="M51.618 40.362c-2.206 0-4 1.794-4 4s1.794 4 4 4 4-1.794 4-4-1.794-4-4-4zm0 6c-1.103 0-2-.897-2-2s.897-2 2-2 2 .897 2 2-.897 2-2 2zm-16.119-6c-2.206 0-4 1.794-4 4s1.794 4 4 4 4-1.794 4-4-1.794-4-4-4zm0 6c-1.103 0-2-.897-2-2s.897-2 2-2 2 .897 2 2-.897 2-2 2zm10.119-5a1 1 0 00-1 1h-2a1 1 0 10-2 0v1a1 1 0 001 1h4a1 1 0 001-1v-1a1 1 0 00-1-1z"/></g></svg>