<svg xmlns="http://www.w3.org/2000/svg" viewBox="0 0 503.607 503.607" width="512" height="512"><path d="M477.553 180.459h-59.88C402.765 84.035 344.761 4.197 251.799 4.197S100.833 84.035 85.925 180.459h-59.88C11.656 180.459 0 192.115 0 206.504V339.07c0 11.125 6.971 20.611 16.783 24.345v109.95c0 14.391 11.658 26.045 26.053 26.045h417.926c14.395 0 26.053-11.654 26.053-26.045v-109.95c9.815-3.733 16.791-13.22 16.791-24.345V206.504c.001-14.389-11.664-26.045-26.053-26.045zM251.799 20.984c81.785 0 134.463 71.425 148.883 159.475h-17.379c-4.133-21.154-10.859-43.397-20.89-64.307-24.767-51.608-62.241-78.382-110.614-78.382-44.775 0-78.448 23.186-102.075 62.674-14.734 24.625-24.116 52.774-29.43 80.014h-17.379c14.421-88.049 67.099-159.474 148.884-159.474zM366.17 180.459H137.424c5.081-24.5 13.697-49.654 26.706-71.395 20.829-34.812 49.431-54.507 87.67-54.507 41.5 0 73.358 22.761 95.479 68.857 8.834 18.415 14.965 38.143 18.891 57.045zm103.859 292.906a9.254 9.254 0 01-9.266 9.258H42.836a9.254 9.254 0 01-9.266-9.258v-108.25h142.688v10.693c0 6.224 3.93 11.512 9.439 13.563 1.575.587 3.273.924 5.052.924h35.869v25.18c0 1.657.49 3.277 1.41 4.656l16.787 25.18c3.322 4.983 10.645 4.983 13.968 0l16.787-25.18a8.396 8.396 0 001.41-4.656v-25.18h35.869c7.999 0 14.495-6.484 14.495-14.487v-10.693h142.684v108.25zM310.557 356.638c0 .028-.004.055-.004.083v16.787H193.049v-33.574h117.508v16.704zm-67.151 33.657h16.787v22.639l-8.393 12.59-8.393-12.59v-22.639zM486.82 339.07c0 5.115-4.146 9.258-9.266 9.258h-150.21v-10.693c0-8.003-6.496-14.487-14.495-14.487h-122.1c-8.001 0-14.487 6.486-14.487 14.487v10.693H26.045a9.252 9.252 0 01-9.258-9.258V206.504a9.252 9.252 0 019.258-9.258h451.509c5.12 0 9.266 4.143 9.266 9.258V339.07z" fill="#FFF"/></svg>