<svg xmlns="http://www.w3.org/2000/svg" width="512" height="512"><g fill="#FFF"><path d="M64 220.16c-17.067 10.24-23.893 24.747-19.627 38.4 5.973 18.773 30.72 29.867 58.88 27.307 13.653 0 25.6 2.56 30.72 8.533 1.707 2.56 2.56 5.12 2.56 7.68-1.707 15.36 6.827 29.867 23.04 37.547 17.92 8.533 46.933 9.387 68.267-9.387l6.827-4.267c5.12-4.267 12.8-5.973 21.333-5.973 7.68 0 16.213 2.56 21.333 5.973l6.827 4.267c12.8 11.093 27.307 15.36 40.96 15.36 10.24 0 19.627-2.56 28.16-6.827 16.213-8.533 24.747-22.187 23.04-37.547-.853-2.56 0-5.12 2.56-7.68 5.12-5.973 17.067-9.387 30.72-8.533 28.16 2.56 52.907-8.533 58.88-27.307 4.267-13.653-3.413-28.16-19.627-38.4-5.973-3.413-10.24-8.533-10.24-12.8s3.413-9.387 10.24-12.8c16.213-7.68 23.893-21.333 20.48-34.133-4.267-17.92-27.307-29.867-56.32-29.013-15.36.853-28.16-2.56-34.133-8.533-1.707-1.707-2.56-4.267-2.56-6.827.853-13.653-8.533-26.453-23.893-34.987-18.773-9.387-46.933-12.8-67.413 2.56L271.36 93.867c-4.267 2.56-9.387 4.267-15.36 4.267s-11.093-1.707-14.507-2.56l-14.507-11.947c-19.627-15.36-48.64-11.947-66.56-2.56-16.213 8.533-24.747 21.333-23.893 34.987 0 2.56-.853 4.267-1.707 6.827-5.973 5.973-18.773 9.387-34.133 8.533-28.16-.853-51.2 11.093-56.32 29.013-3.413 12.8 4.267 25.6 20.48 34.133 5.973 3.413 10.24 8.533 10.24 12.8s-4.266 8.533-11.093 12.8zm28.16-12.8c0-11.093-6.827-21.333-19.627-28.16-4.267-1.707-13.653-7.68-11.947-14.507 1.707-8.533 17.92-17.067 39.253-16.213 19.627.853 36.693-4.267 46.933-14.507 5.973-5.12 8.533-11.947 7.68-19.627-.853-6.827 5.12-13.653 14.507-18.773 13.653-6.827 34.133-9.387 47.787.853l14.507 11.947c6.827 4.267 15.36 6.827 24.747 6.827s17.92-2.56 25.6-7.68l13.653-11.093c13.653-10.24 34.987-8.533 48.64-.853 9.387 5.12 15.36 11.947 14.507 18.773 0 7.68 2.56 14.507 7.68 20.48 9.387 10.24 26.453 15.36 46.933 14.507 21.333-.853 36.693 7.68 39.253 16.213 1.707 7.68-7.68 12.8-11.947 15.36-12.8 6.827-19.627 16.213-19.627 27.307 0 10.24 6.827 20.48 19.627 27.307 5.12 2.56 14.507 9.387 11.947 17.92-2.56 8.533-18.773 17.067-41.813 15.36-19.627-.853-35.84 4.267-44.373 13.653-5.973 5.973-8.533 13.653-7.68 21.333.853 11.947-9.387 17.92-13.653 20.48-13.653 6.827-34.987 6.827-49.493-6.827l-8.533-5.973c-7.68-5.12-18.773-8.533-29.867-8.533-12.8 0-23.04 3.413-31.573 7.68l-6.827 5.12-.853.853c-14.507 13.653-35.84 13.653-49.493 6.827-4.267-2.56-14.507-8.533-13.653-20.48.853-8.533-1.707-15.36-7.68-21.333-8.533-9.387-24.747-14.507-44.373-13.653-22.187 1.707-39.253-5.973-41.813-15.36-2.56-8.533 7.68-15.36 11.947-17.92 12.797-6.828 19.624-16.215 19.624-27.308z"/><path d="M256 38.4C115.2 38.4 0 114.347 0 208.213V312.32C7.68 402.773 120.32 473.6 256 473.6s248.32-70.827 256-162.133V208.213C512 114.347 396.8 38.4 256 38.4zm0 17.067c131.413 0 238.933 68.267 238.933 152.747 0 85.333-107.52 154.453-238.933 154.453-32.853 0-64.213-4.32-92.773-12.133a316.306 316.306 0 01-10.576-3.092c-24.36-7.59-46.45-17.775-65.397-30.001a217.26 217.26 0 01-7.925-5.363c-10.303-7.314-19.539-15.268-27.544-23.76a156.855 156.855 0 01-5.77-6.468 148.18 148.18 0 01-2.707-3.307 140.503 140.503 0 01-5.049-6.752c-.8-1.14-1.58-2.288-2.338-3.443a126.268 126.268 0 01-6.245-10.584 118.227 118.227 0 01-1.819-3.608c-7.009-14.511-10.789-29.941-10.789-45.941C17.067 123.733 124.587 55.467 256 55.467zm238.933 255.146c-6.827 80.213-114.347 145.92-238.933 145.92S23.893 390.827 17.067 311.467V269.76c35.073 60.871 120.544 105.015 221.626 109.571 1.016.046 2.033.092 3.052.13a423.508 423.508 0 006.307.18c.681.014 1.361.03 2.043.041 1.964.03 3.931.05 5.905.05s3.941-.02 5.905-.05c.682-.01 1.362-.027 2.043-.041a392.28 392.28 0 006.307-.18c1.019-.038 2.036-.084 3.052-.13 101.082-4.557 186.553-48.7 221.626-109.571v40.853z"/></g></svg>