<svg xmlns="http://www.w3.org/2000/svg" width="512" height="512"><g fill="#FFF"><path d="M282.483 185.379a96.823 96.823 0 00-97.103 97.103 96.823 96.823 0 0097.103 97.103c53.848 0 97.103-43.255 97.103-97.103s-43.255-97.103-97.103-97.103zm0 176.552c-44.138 0-79.448-35.31-79.448-79.448 0-44.138 35.31-79.448 79.448-79.448 44.138 0 79.448 35.31 79.448 79.448 0 44.138-35.31 79.448-79.448 79.448z"/><path d="M282.483 238.345c-24.717 0-44.138 19.421-44.138 44.138s19.421 44.138 44.138 44.138 44.138-19.421 44.138-44.138-19.421-44.138-44.138-44.138zm0 70.621c-15.007 0-26.483-11.476-26.483-26.483S267.476 256 282.483 256s26.483 11.476 26.483 26.483-11.476 26.483-26.483 26.483zm0 97.103c-5.297 0-8.828 3.531-8.828 8.828 0 5.297 3.531 8.828 8.828 8.828 5.297 0 8.828-3.531 8.828-8.828-.001-5.297-3.532-8.828-8.828-8.828zm0 44.138c-5.297 0-8.828 3.531-8.828 8.828 0 5.297 3.531 8.828 8.828 8.828 5.297 0 8.828-3.531 8.828-8.828-.001-5.297-3.532-8.828-8.828-8.828zm0-291.31c5.297 0 8.828-3.531 8.828-8.828s-3.531-8.828-8.828-8.828c-5.297 0-8.828 3.531-8.828 8.828s3.531 8.828 8.828 8.828z"/><path d="M339.841 60.048l3.552-3.552c1.766-1.766 2.648-3.531 2.648-6.179s-.883-4.414-2.648-6.179a151.798 151.798 0 00-28.824-22.593 8.952 8.952 0 00-2.708-1.593A149.55 149.55 0 00279.59 6.108c-1.804-1.319-3.913-1.869-5.972-1.638A148.463 148.463 0 00237.462 0c-39.724 0-77.683 15.89-105.931 44.138l-87.393 87.393C15.89 159.779 0 197.738 0 237.462c0 39.724 15.89 77.683 44.138 105.931 1.766 1.766 3.531 2.648 6.179 2.648 1.766 0 4.414-.883 6.179-2.648l3.552-3.552C86.18 440.204 176.75 512 282.483 512 408.717 512 512 408.717 512 282.483 512 176.75 440.204 86.18 339.841 60.048zM35.297 303.682l33.558-33.558c3.531-3.531 3.531-8.828 0-12.359-3.531-3.531-8.828-3.531-12.359 0l-29.308 29.308a130.161 130.161 0 01-6.956-23.295 9.515 9.515 0 001.836.166c1.766 0 4.414-.883 6.179-2.648l60.028-60.028c3.531-3.531 3.531-8.828 0-12.359-3.531-3.531-8.828-3.531-12.359 0l-57.94 57.94a137.06 137.06 0 01-.322-9.388c0-35.31 14.124-68.855 38.841-93.572l87.393-87.393c24.717-24.717 58.262-38.841 93.572-38.841 6.435 0 12.765.452 18.974 1.33l-62.229 62.229c-3.531 3.531-3.531 8.828 0 12.359 1.766 1.766 3.531 2.648 6.179 2.648 1.766 0 4.414-.883 6.179-2.648l70.082-70.082a130.625 130.625 0 0117.781 6.936L256 68.855c-3.531 3.531-3.531 8.828 0 12.359 1.766 1.766 3.531 2.648 6.179 2.648s4.414-.883 6.179-2.648l41.885-41.885a141.707 141.707 0 0114.611 10.989l-8.828 8.828L59.145 316.028a6.36 6.36 0 00-1.715 1.715l-7.112 7.112c-5.732-6.686-10.746-13.763-15.021-21.173zm247.186 190.663c-100.635 0-187.145-70.621-207.448-169.49l249.82-249.821c98.869 20.303 169.49 106.814 169.49 207.448 0 116.525-95.338 211.863-211.862 211.863z"/><path d="M459.034 273.655c-5.297 0-8.828 3.531-8.828 8.828 0 5.297 3.531 8.828 8.828 8.828 5.297 0 8.828-3.531 8.828-8.828 0-5.297-3.531-8.828-8.828-8.828zm-44.137 0c-5.297 0-8.828 3.531-8.828 8.828 0 5.297 3.531 8.828 8.828 8.828 5.297 0 8.828-3.531 8.828-8.828-.001-5.297-3.532-8.828-8.828-8.828zm-232.166 96.221c-3.531 3.531-3.531 8.828 0 12.359 3.531 3.531 8.828 3.531 12.359 0s3.531-8.828 0-12.359c-3.531-3.531-8.828-3.531-12.359 0zm-30.897 30.896c-3.531 3.531-3.531 8.828 0 12.359 3.531 3.531 8.828 3.531 12.359 0 3.531-3.531 3.531-8.828 0-12.359-3.531-3.531-9.71-3.531-12.359 0zm261.297-236.579c3.531-3.531 3.531-8.828 0-12.359-2.648-3.531-8.828-3.531-12.359 0-3.531 3.531-3.531 8.828 0 12.359 3.531 3.531 8.828 3.531 12.359 0zm-43.255 18.538c-3.531 3.531-3.531 8.828 0 12.359 3.531 3.531 8.828 3.531 12.359 0 3.531-3.531 3.531-8.828 0-12.359-3.532-3.531-8.828-3.531-12.359 0zm30.896 218.041c-3.531 3.531-3.531 8.828 0 12.359 3.531 3.531 8.828 3.531 12.359 0 3.531-2.648 3.531-8.828 0-12.359-3.531-3.531-8.828-3.531-12.359 0zm-30.896-30.896c-3.531 3.531-3.531 8.828 0 12.359 3.531 3.531 8.828 3.531 12.359 0 3.531-3.531 3.531-8.828 0-12.359-3.532-3.531-8.828-3.531-12.359 0z"/></g></svg>