<svg xmlns="http://www.w3.org/2000/svg" width="512" height="512"><g fill="#FFF"><path d="M256 0C115.2 0 0 115.2 0 256s115.2 256 256 256 256-115.2 256-256S396.8 0 256 0zm0 494.933c-131.413 0-238.933-107.52-238.933-238.933S124.587 17.067 256 17.067 494.933 124.587 494.933 256 387.413 494.933 256 494.933z"/><path d="M128 93.867c1.707 0 3.413-.853 4.267-2.56 26.453-19.627 58.027-33.28 90.453-38.4 4.267 0 7.68-5.12 6.827-9.387 0-4.267-5.12-7.68-9.387-6.827-34.987 5.973-68.267 20.48-97.28 41.813-3.413 2.56-4.267 8.533-1.707 11.947 1.707 2.56 4.267 3.414 6.827 3.414zm-37.547 28.16c-3.413-2.56-9.387-1.707-11.947 1.707-22.187 28.16-35.84 62.293-41.813 97.28-.853 4.267 2.56 8.533 6.827 9.387h1.707c4.267 0 7.68-2.56 8.533-6.827 5.12-32.427 18.773-63.147 38.4-89.6 2.56-3.414 1.707-9.387-1.707-11.947zM52.907 289.28c0-4.267-5.12-7.68-9.387-6.827-4.267 0-7.68 5.12-6.827 9.387 5.973 34.987 20.48 68.267 41.813 97.28 1.707 2.56 4.267 3.413 6.827 3.413 1.707 0 3.413-.853 4.267-.853 3.413-2.56 4.267-8.533 1.707-11.947-19.627-26.453-33.28-58.026-38.4-90.453zM222.72 458.24c-32.427-5.12-63.147-18.773-89.6-38.4-3.413-2.56-9.387-1.707-11.947 1.707-2.56 3.413-1.707 9.387 1.707 11.947 28.16 22.187 62.293 35.84 97.28 41.813h1.707a7.648 7.648 0 007.68-7.68c.853-4.267-2.56-8.534-6.827-9.387zm155.307-37.547c-26.453 19.627-57.173 33.28-89.6 38.4-4.267 0-7.68 5.12-6.827 9.387.853 4.267 4.267 6.827 8.533 6.827.853 0 .853 0 .853.853 34.987-5.973 68.267-20.48 97.28-41.813 3.413-2.56 4.267-8.533 1.707-11.947-2.56-3.413-8.533-4.267-11.946-1.707zm89.6-138.24c-4.267-.853-8.533 2.56-9.387 6.827-5.12 32.427-18.773 63.147-38.4 89.6-2.56 3.413-1.707 9.387 1.707 11.947 1.707.853 3.413 1.707 5.12 1.707 2.56 0 5.12-1.707 5.973-3.413 22.187-28.16 35.84-62.293 41.813-97.28.854-4.268-2.56-8.534-6.826-9.388zm-9.387-58.88c.853 4.267 4.267 6.827 8.533 6.827 0 0 .853 0 1.707-.853 4.267 0 7.68-5.12 6.827-9.387-5.973-34.987-20.48-68.267-41.813-97.28-2.56-3.413-8.533-4.267-11.947-1.707s-4.267 8.533-1.707 11.947c19.627 26.453 33.28 58.027 38.4 90.453zM288.427 53.76c32.427 5.12 64 18.773 90.453 38.4 1.707.853 3.413 1.707 5.12 1.707 2.56 0 5.12-.853 5.973-2.56 2.56-3.413 1.707-9.387-1.707-11.947-28.16-21.333-62.293-35.84-97.28-41.813-4.267-.853-8.533 2.56-9.387 6.827s2.561 8.533 6.828 9.386zM256 85.333c5.12 0 8.533-4.267 8.533-8.533V42.667c0-5.12-3.413-8.533-8.533-8.533s-8.533 3.413-8.533 8.533V76.8c0 5.12 3.413 8.533 8.533 8.533zm0 341.334c-5.12 0-8.533 3.413-8.533 8.533v34.133c0 5.12 3.413 8.533 8.533 8.533s8.533-3.413 8.533-8.533V435.2c0-5.12-3.413-8.533-8.533-8.533zm213.333-179.2H435.2c-5.12 0-8.533 3.413-8.533 8.533s3.413 8.533 8.533 8.533h34.133c5.12 0 8.533-3.413 8.533-8.533s-3.413-8.533-8.533-8.533zM76.8 264.533c4.267 0 8.533-3.413 8.533-8.533s-3.413-8.533-8.533-8.533H42.667c-5.12 0-8.533 3.413-8.533 8.533s3.413 8.533 8.533 8.533H76.8zM401.067 98.987l-23.893 23.893c-3.413 3.413-3.413 8.533 0 11.947 1.707 1.707 3.413 2.56 5.973 2.56 1.707 0 4.267-.853 5.973-2.56l23.893-23.893c3.413-3.413 3.413-8.533 0-11.947s-8.533-3.414-11.946 0zm-266.24 278.186c-3.413-3.413-8.533-3.413-11.947 0l-23.893 23.893c-3.413 3.413-3.413 8.533 0 11.947 1.707 1.707 3.413 2.56 5.973 2.56s4.267-.853 5.973-2.56l23.893-23.893c3.414-3.413 3.414-8.533.001-11.947zm254.293 0c-3.413-3.413-8.533-3.413-11.947 0-3.413 3.413-3.413 8.533 0 11.947l23.893 23.893c1.707 1.707 3.413 2.56 5.973 2.56 1.707 0 4.267-.853 5.973-2.56 3.413-3.413 3.413-8.533 0-11.947l-23.892-23.893zM122.88 134.827c1.707 1.707 3.413 2.56 5.973 2.56s5.12-.853 5.973-2.56c3.413-3.413 3.413-8.533 0-11.947l-23.893-23.893c-3.413-3.413-8.533-3.413-11.947 0s-3.413 8.533 0 11.947l23.894 23.893zm226.987 129.706c5.12 0 8.533-3.413 8.533-8.533s-3.413-8.533-8.533-8.533h-60.821c-3.105-11.949-12.563-21.408-24.512-24.512V128c0-5.12-3.413-8.533-8.533-8.533s-8.533 3.413-8.533 8.533v94.954c-14.679 3.814-25.6 17.216-25.6 33.046 0 18.773 15.36 34.133 34.133 34.133 15.83 0 29.232-10.921 33.046-25.6h60.82zM256 273.067c-9.387 0-17.067-7.68-17.067-17.067s7.68-17.067 17.067-17.067 17.067 7.68 17.067 17.067-7.68 17.067-17.067 17.067z"/></g></svg>