<svg xmlns="http://www.w3.org/2000/svg" viewBox="0 0 512.354 512.354" width="512" height="512"><g fill="#FFF"><path d="M481.731 55.82c-1.707-13.653-13.653-27.307-35.84-40.107L421.998 1.207c-2.56-.853-4.267-1.707-6.827-.853-1.707.853-4.267 2.56-5.12 4.267L287.817 208.902c-1.261.665-2.371 1.687-3.206 3.078l-41.899 70.608-38.654-21.373 35.327-63.742c2.56-4.267.853-9.387-3.413-11.947l-21.744-11.997 47.344-84.43c12.8-1.707 23.893-8.533 29.867-19.627 5.12-10.24 5.973-22.187.853-34.133-5.12-11.093-13.653-20.48-25.6-27.307-24.747-13.653-54.613-7.68-65.707 12.8-5.12 10.24-5.973 23.893 0 35.84l-51.194 91.296-.006.011-35.305 63.703-45.762-25.302c-8.533-5.12-17.92-4.267-25.6 0-7.68 5.12-12.8 12.8-12.8 22.187v278.187c0 14.507 11.093 25.6 25.6 25.6h290.133c14.507 0 25.6-11.093 25.6-25.6v-117.76c0-9.387-4.267-17.92-12.8-22.187L338.6 335.609c13.742-20.139 27.996-42.201 41.584-65.602 2.56-4.267 1.707-9.387-2.56-11.947l-36.285-21.771c15.429-7.565 39.412-22.277 59.325-46.496 1.707-2.56 36.693-51.2 51.2-99.84V89.1c.853-.853 2.56-10.24 19.627-11.093 2.56 0 4.267-.853 5.12-3.413.853-.854 6.827-7.681 5.12-18.774zM295.704 229.9l40.096 23.953c-14.249 22.841-26.851 41.916-38.261 59.051l-39.285-21.722 37.45-61.282zm-79.36-168.107c1.707-2.56 1.707-5.973 0-8.533-5.12-8.533-5.12-17.067-1.707-23.893 6.827-12.8 26.453-15.36 42.667-5.973 8.533 4.267 14.507 11.093 17.92 18.773 3.413 6.827 3.413 13.653 0 19.627-4.267 6.827-11.947 11.093-21.333 11.093-2.56 0-5.12 1.707-6.827 4.267l-48.54 87.713-29.756-16.417 47.576-86.657zm-56.485 101.849l37.711 21.031c.818.409 1.44.619 2.054.73l20.133 11.217-30.707 56.297-7.184-3.973-22.933-12.777 6.211-11.387c2.56-4.267.853-9.387-3.413-11.947s-9.387-.853-11.947 3.413l-6.201 11.369-14.279-7.955 30.555-56.018zm194.725 205.351v117.76c0 5.12-3.413 8.533-8.533 8.533H55.918c-5.12 0-8.533-3.413-8.533-8.533v-8.533h59.733c5.12 0 8.533-3.413 8.533-8.533s-3.413-8.533-8.533-8.533H47.384v-17.067h34.133c5.12 0 8.533-3.413 8.533-8.533s-3.413-8.533-8.533-8.533H47.384V208.567c0-4.267 2.56-6.827 4.267-7.68.853 0 2.56-.853 4.267-.853.853 0 2.56 0 4.267.853l52.358 28.951c.456.369.928.679 1.402.916l27.75 15.31c.393.325.81.631 1.263.903.54.27.99.447 1.413.574l43.814 24.173c.206.103.399.193.583.272l52.012 28.76c.382.345.773.639 1.165.835l52.861 29.242c.282.22.578.432.899.624.575.287 1.15.572 1.725.827l24.729 13.68a8.65 8.65 0 001.425.577l26.735 14.783c2.559 1.706 4.265 4.266 4.265 7.679zm-30.439-41.377l-11.455-6.334c11.563-16.848 23.494-35.671 37.908-58.589l10.813 6.46c-12.706 20.33-24.573 39.816-37.266 58.463zM464.664 61.793c-20.48 3.413-28.16 17.067-29.867 24.747-14.507 46.08-48.64 93.867-48.64 93.867-22.222 27.161-50.79 40.823-61.977 45.587l-19.719-11.831L419.438 19.98l17.067 10.24c22.187 13.653 27.307 23.893 28.16 28.16l-.001 3.413z"/><path d="M341.784 173.58c-6.827 1.707-11.093 8.533-9.387 15.36 1.707 6.827 8.533 11.093 15.36 9.387s11.093-8.533 9.387-15.36c-1.706-6.827-8.533-11.094-15.36-9.387zm75.094-124.587c-6.827 1.707-11.093 8.533-9.387 15.36 1.707 6.827 8.533 11.093 15.36 9.387s11.093-8.533 9.387-15.36-9.387-11.093-15.36-9.387zm-225.28 93.867c4.267 2.56 9.387.853 11.947-3.413s.853-9.387-3.413-11.947c-4.267-2.56-9.387-.853-11.947 3.413-1.707 4.267-.854 9.387 3.413 11.947zm29.013-52.907c4.267 2.56 9.387.853 11.947-3.413 2.56-4.267.853-9.387-3.413-11.947s-9.387-.853-11.947 3.413c-1.707 4.267-.854 9.387 3.413 11.947z"/></g></svg>