<svg xmlns="http://www.w3.org/2000/svg" viewBox="0 0 505.584 505.584" width="512" height="512"><g fill="#FFF"><path d="M84.153 135.389c-5.036 0-8.393 3.357-8.393 8.393s3.357 8.393 8.393 8.393 8.393-3.357 8.393-8.393-3.357-8.393-8.393-8.393z"/><path d="M500.467 306.615c-2.518-1.679-5.875-1.679-8.393-.839-.839 0-1.679.839-3.357.839 1.679-5.036 3.357-10.911 5.036-15.108l1.679-3.357c9.233-19.305 11.751-40.289 9.233-63.79-3.357-31.895-38.61-54.557-67.987-55.397-23.324-.752-43.269 11.991-55.617 34.588-10.847-5.994-23.35-9.408-36.711-9.408h-66.308c-1.679 0-42.807-4.197-42.807-50.361 0-55.397-32.734-72.184-37.771-74.702-30.769-16.722-55.141-6.792-64.196-1.644a47.327 47.327 0 00-7.584-4.234 97.64 97.64 0 00.436-9.23c0-22.662-7.554-41.967-20.144-51.2-3.357-2.518-6.715-2.518-10.072 0C85.44 10.91 79.81 24.685 77.336 38.24c-11.121-6.564-22.315-9.59-32.633-7.77-3.357 0-5.875 3.357-6.715 6.715C34.98 58.238 48.814 79.957 66.21 92.703c-11.041 17.45-22.787 35.085-35.776 50.239l-8.247 9.746c-.911.47-1.789 1.129-2.665 2.005l-8.393 9.233c-15.108 17.626-14.269 43.646 1.679 59.593 3.834 3.834 8.373 6.957 13.368 9.229 18.203 8.981 40.788 4.602 55.459-10.069l7.554-7.554c2.518-2.518 5.875-3.357 10.072-2.518 3.357.839 6.715 4.197 7.554 7.554l39.449 125.902-47.285 119.002c-49.468-14.664-80.586-31.285-84.492-33.388-1.679-2.518-5.036-3.357-7.554-2.518-3.357.839-5.875 3.357-6.715 6.715s.839 7.554 3.357 9.233c.966.483 36.4 20.141 94.135 36.748a9.11 9.11 0 003.229 1.862c19.305 5.036 40.289 10.072 60.433 13.43h1.679c.507 0 1.014-.064 1.512-.173 28.26 4.692 59.333 7.727 92.494 7.727 45.028 0 94.208-5.759 145.173-20.79.837.039 1.693-.022 2.551-.193 16.787-5.036 35.252-11.751 53.718-19.305a7.353 7.353 0 002.817-2.008 519.138 519.138 0 0037.471-18.137c4.197-1.679 5.875-6.715 3.357-10.911-1.679-4.197-6.715-5.875-10.911-3.357a527.07 527.07 0 01-31.747 15.259L419.89 343.546v-73.862a76.162 76.162 0 00-4.15-24.862c7.315-17.74 15.225-25.498 19.258-25.498 5.036 0 9.233 5.036 10.072 10.911.839 11.751-.839 24.341-7.554 37.77l-.839 1.679c-11.751 36.931-10.072 64.63 5.875 78.898 6.715 6.715 15.948 10.072 26.02 10.072 9.233 0 20.144-2.518 31.056-7.554 3.357-1.679 5.036-4.197 5.036-7.554V313.33c0-2.519-1.679-5.037-4.197-6.715zm-199.763-3.358h-21.823l5.036-25.18h11.751l5.036 25.18zm1.678-41.967h-58.754c-5.036 0-8.393-3.357-8.393-8.393V210.93h100.721v41.967c0 5.036-3.357 8.393-8.393 8.393h-25.181zM189.91 83.349c0 .839.839.839.839.839 1.679.839 28.538 12.59 28.538 59.593 0 23.502 8.393 40.289 20.144 50.361h-20.983l-46.164-65.469c-9.233-13.43-16.787-28.538-24.341-44.485V82.51c-.839-.839-.839-2.518-1.679-3.357 7.554-3.358 23.502-6.715 43.646 4.196zm-88.97-62.111c5.036 7.554 8.393 19.305 8.393 31.895 0 13.43-3.357 25.18-8.393 32.734-3.417-4.556-6.058-11.435-7.405-19.318-.618-4.011-.938-8.139-.977-12.536.131-13.128 3.446-25.371 8.382-32.775zM54.776 47.257c6.715.839 14.269 4.197 20.984 10.072 0 2.617.176 5.229.509 7.772a80.64 80.64 0 001.55 9.476c-.987.997-1.662 1.752-2.241 2.933-.325.456-.629.928-.914 1.417-10.771-9.198-18.223-20.845-19.888-31.67zm-21.122 170.6a29.193 29.193 0 01-6.933-4.145l-.053-.043a28.967 28.967 0 01-1.91-1.712 26.828 26.828 0 01-.626-.637c-.115-.12-.232-.24-.344-.362a26.123 26.123 0 01-.661-.752c-.101-.118-.207-.234-.305-.354-.123-.149-.238-.304-.357-.455-7.918-10.07-7.283-24.406 1.256-33.721l4.197-5.036c10.795 3.321 33.899 15.688 38.456 41.144-9.306 8.032-22.083 10.243-32.72 6.073zm140.61 264.037l50.059-128.276h118.348l48.327 116.141c-80.368 22.352-155.24 21.509-216.734 12.135zm268.289-30.073c-12.59 5.036-25.18 9.233-37.771 13.43l-50.361-123.384c-.839-3.357-4.197-5.036-7.554-5.036H217.608c-3.357 0-6.715 1.679-7.554 5.036L157.176 478.68c-13.629-2.405-27.258-5.576-40.887-8.782-.637-.167-1.266-.336-1.898-.504l49.5-120.813c.839-1.679.839-4.197 0-5.875l-41.128-129.259c-3.357-9.233-10.911-15.948-20.144-18.466-7.418-2.023-15.374-.248-21.699 4.008-8.161-23.718-28.698-36.485-41.71-42.458l2.976-3.517c15.599-17.159 28.298-37.215 40.119-56.131.714-.47 1.358-1.048 1.848-1.783l1.107-1.771c1.933 3.138 4.132 5.94 6.578 8.349a64.634 64.634 0 003.226 3.495c2.808 2.106 6.2 2.444 8.709 1.027.734-.297 1.468-.66 2.202-1.027 7.051-5.171 12.521-13.501 15.97-23.81 3.898 2.453 7.646 5.633 9.21 9.542l.839.839c7.554 15.948 15.948 31.895 26.02 47.003l48.682 68.826c1.679 1.679 4.197 3.357 6.715 3.357h5.036v41.967c0 14.269 10.911 25.18 25.18 25.18h23.166l-6.379 31.895c0 2.518 0 5.036 1.679 6.715 1.679 2.518 4.197 3.357 6.715 3.357h41.967c2.518 0 5.036-.839 6.715-3.357 1.679-1.679 2.518-4.197 1.679-6.715l-6.379-31.895h14.772c14.269 0 25.18-10.911 25.18-25.18v-41.111c27.839 4.704 48.682 28.604 48.682 57.898v75.541c0 1.679.839 2.518.839 3.357l40.29 103.239zm27.698-134.295c.839 2.518 1.679 3.357 4.197 5.036 2.518 1.679 4.197 1.679 6.715 1.679h1.679c1.679 0 3.357-.839 5.036-.839v14.269c-6.715 2.518-13.429 4.197-19.305 4.197s-10.911-2.518-15.108-5.875c-10.911-10.072-11.751-31.895-1.679-61.272l.839-.839c7.554-15.948 10.072-31.056 8.393-46.164-1.679-14.269-13.43-25.18-26.859-25.18-9.987 0-19.149 7.439-28.304 23.112a75.146 75.146 0 00-11.944-13.117c6.728-13.407 20.145-27.619 41.088-26.781 21.823 0 49.521 18.466 52.039 40.289 2.518 20.144 0 37.771-7.554 54.557v.839l-1.679 4.197c-5.036 14.266-8.393 25.177-7.554 31.892z"/></g></svg>